<?xml version="1.0" encoding="UTF-8" standalone="no"?>
<!-- Creator: CorelDRAW X8 -->

<svg
   xml:space="preserve"
   width="69.9707mm"
   height="17.5181mm"
   version="1.1"
   style="shape-rendering:geometricPrecision; text-rendering:geometricPrecision; image-rendering:optimizeQuality; fill-rule:evenodd; clip-rule:evenodd"
   viewBox="0 0 1876 470"
   id="svg2619"
   xmlns="http://www.w3.org/2000/svg"
   xmlns:svg="http://www.w3.org/2000/svg">
 <defs
   id="defs2604">
  <style
   type="text/css"
   id="style2602">
   <![CDATA[
    .fil0 {fill:#0E1421}
    .fil1 {fill:#752DE6}
    .fil2 {fill:#0E1421;fill-rule:nonzero}
    .fil3 {fill:#0E1421;fill-rule:nonzero}
    .fil4 {fill:gray;fill-rule:nonzero}
   ]]>
  </style>
 
   
   
   
   
   
  </defs>
 <g
   id="Camada_x0020_1">
  <metadata
   id="CorelCorpID_0Corel-Layer" />
  <path
   class="fil0"
   d="M 265,392 C 205,262 146,130 87,0 H 0 L 178,392 H 50 l 35,78 h 145 z"
   id="path2607" /><path
   class="fil1"
   d="M 323,79 H 162 C 150,53 138,26 126,0 232,0 337,0 443,0 L 284,349 c -14,-31 -28,-62 -42,-93 27,-59 54,-118 81,-177 z"
   id="path2609" /><path
   class="fil2"
   d="m 557,355 -13,32 c -6,16 -14,30 -33,30 -3,0 -17,-2 -20,-2 -11,0 -16,9 -16,16 0,18 23,21 39,21 38,0 53,-17 70,-59 l 96,-246 c 4,-10 6,-15 6,-20 0,-6 -6,-17 -18,-17 -12,0 -15,6 -23,26 L 578,313 512,134 c -5,-13 -9,-24 -22,-24 -12,0 -20,10 -20,19 0,5 2,10 5,19 z m 92,-84 c 0,19 1,34 11,55 13,25 47,35 71,35 45,0 66,-27 78,-42 0,20 0,26 3,33 2,4 8,9 16,9 6,0 11,-3 14,-6 5,-5 5,-13 5,-26 V 144 c 0,-14 0,-23 -5,-28 -4,-3 -9,-6 -15,-6 -6,0 -11,4 -14,6 -6,5 -6,14 -6,28 v 74 c 0,54 -5,64 -10,74 -11,20 -35,34 -58,34 -16,0 -33,-9 -42,-24 -8,-13 -8,-30 -8,-47 V 144 c 0,-14 0,-23 -5,-28 -4,-3 -10,-6 -15,-6 -6,0 -11,3 -15,6 -5,5 -5,14 -5,28 z M 848,152 v -14 c 0,-7 0,-28 -19,-28 -5,0 -10,2 -14,6 -6,5 -6,13 -6,26 v 277 c 0,15 0,33 21,33 20,0 20,-17 20,-34 v -99 c 4,6 31,42 84,42 83,0 106,-72 106,-123 0,-46 -20,-128 -107,-128 -51,0 -73,28 -85,42 z m 77,-10 c 32,0 74,24 74,95 0,53 -28,92 -72,92 -25,0 -78,-14 -78,-96 0,-68 40,-91 76,-91 z"
   id="path2611" /><path
   class="fil3"
   d="m 1277,286 c 0,-11 -9,-18 -18,-18 -7,0 -10,3 -14,7 -1,3 -10,18 -12,21 -12,22 -36,34 -61,34 -45,0 -73,-35 -73,-95 0,-56 29,-92 74,-92 41,0 56,28 62,38 9,16 15,16 20,16 9,0 18,-7 18,-18 0,-7 -4,-16 -9,-22 -14,-21 -37,-45 -92,-45 -90,0 -114,70 -114,125 0,36 9,59 17,74 12,20 36,51 99,51 78,0 103,-62 103,-76 z m 216,-83 c 0,-13 0,-43 -16,-62 -16,-19 -37,-29 -66,-29 -39,0 -59,19 -76,39 V 53 c 0,-16 0,-33 -20,-33 -20,0 -20,18 -20,33 v 276 c 0,15 0,33 20,33 7,0 12,-4 15,-6 5,-6 5,-14 5,-27 v -80 c 0,-50 5,-60 12,-72 10,-20 34,-33 56,-33 17,0 34,8 43,23 6,11 7,32 7,45 v 117 c 0,12 0,17 2,22 3,7 11,11 18,11 6,0 13,-3 16,-8 4,-5 4,-10 4,-25 z m 193,120 c 5,17 11,39 27,39 11,0 20,-8 20,-16 0,-7 -5,-18 -5,-21 -3,-7 -7,-17 -7,-39 0,-11 2,-64 2,-76 0,-55 -6,-98 -98,-98 -86,0 -102,51 -102,65 0,9 8,17 18,17 12,0 16,-9 20,-20 10,-25 40,-33 67,-33 53,0 54,30 55,62 -11,4 -16,5 -23,7 -9,2 -57,11 -67,13 -29,5 -79,16 -79,71 0,33 25,68 78,68 52,0 82,-27 94,-39 z m -3,-91 c 0,26 -1,48 -10,64 -14,24 -47,34 -72,34 -33,0 -46,-23 -46,-39 0,-9 4,-29 31,-36 19,-5 42,-9 70,-15 13,-3 21,-6 27,-8 z m 90,-115 h -11 c -5,0 -22,0 -22,14 0,1 0,15 18,15 h 15 v 146 c 0,29 0,69 57,69 24,0 45,-5 45,-20 0,-10 -6,-15 -14,-15 -3,0 -20,3 -24,3 -22,0 -24,-17 -24,-41 V 146 h 23 c 12,0 24,-4 24,-15 0,-14 -16,-14 -25,-14 h -22 V 74 c 0,-17 0,-35 -20,-35 -8,0 -14,5 -17,9 -3,6 -3,11 -3,28 z"
   id="path2613" />
 </g>
</svg>
